<svg width="322" height="227" viewBox="0 0 322 227" fill="none" xmlns="http://www.w3.org/2000/svg">
<path d="M99.1923 23.1992C99.0578 23.1992 98.9233 23.1318 98.856 23.0643C97.4438 20.9054 87.2219 15.5081 76.3948 17.5321C76.193 17.5996 75.9913 17.4646 75.9913 17.2622C75.924 17.0598 76.0585 16.8574 76.2603 16.8574C87.5582 14.766 97.9145 20.3657 99.4613 22.727C99.5958 22.9294 99.5285 23.1318 99.3268 23.2667C99.3268 23.1318 99.2595 23.1992 99.1923 23.1992Z" fill="white"/>
<path d="M97.4425 23.198C97.3752 23.198 97.3752 23.198 97.308 23.198C97.1062 23.1305 97.039 22.9281 97.1063 22.7257C97.1735 22.5908 101.948 12.1336 116.34 13.9552C116.541 13.9552 116.676 14.1576 116.676 14.36C116.676 14.5624 116.474 14.6973 116.272 14.6973C102.419 12.9432 97.846 22.9281 97.7787 23.0631C97.7115 23.0631 97.577 23.198 97.4425 23.198Z" fill="white"/>
<path d="M98.3856 24.6824C98.1838 24.6824 98.0493 24.5475 98.0493 24.3451C98.0493 20.1622 94.8886 13.618 92.8039 11.5941C92.6694 11.4591 92.6694 11.1893 92.8039 11.0543C92.9384 10.9194 93.2074 10.9194 93.3419 11.0543C95.4938 13.1458 98.7891 19.9598 98.7891 24.3451C98.7218 24.5475 98.5873 24.6824 98.3856 24.6824Z" fill="white"/>
<path d="M115.801 105.168C115.801 123.317 101.14 128.444 83.0504 128.444C64.9604 128.444 50.3 123.384 50.3 105.168C50.3 87.0201 64.9604 72.3125 83.0504 72.3125C101.14 72.3125 115.801 87.0201 115.801 105.168Z" fill="#202124"/>
<path d="M117.953 102.2C117.953 117.583 105.512 120.484 90.1119 120.484C74.7791 120.484 62.2708 117.65 62.2708 102.2C62.2708 86.8182 74.7119 74.2695 90.1119 74.2695C105.512 74.337 117.953 86.8182 117.953 102.2Z" fill="#202124"/>
<path d="M96.3115 52.9521C88.0652 44.6792 88.0652 31.2662 96.3116 22.9933C104.558 14.7204 117.928 14.7204 126.174 22.9933C134.42 31.2662 134.42 44.6792 126.174 52.9521C117.928 61.225 104.558 61.225 96.3115 52.9521Z" fill="#202124"/>
<path d="M67.3092 89.1032C57.6185 79.3812 57.6185 63.6188 67.3092 53.8968C77 44.1748 92.7118 44.1748 102.403 53.8968C112.093 63.6188 112.093 79.3812 102.403 89.1032C92.7118 98.8251 77 98.8251 67.3092 89.1032Z" fill="#202124"/>
<path d="M83.9392 118.584C72.3175 116.692 64.4252 105.707 66.3113 94.0476C68.1975 82.3884 79.1478 74.4707 90.7695 76.3629C102.391 78.2551 110.283 89.2407 108.397 100.9C106.511 112.559 95.5609 120.477 83.9392 118.584Z" fill="#202124"/>
<path d="M78.531 72.9698C63.6753 69.4506 54.476 54.516 57.9839 39.6124C61.4917 24.7088 76.3784 15.4799 91.2341 18.9991C106.09 22.5183 115.289 37.4528 111.781 52.3564C108.273 67.26 93.3868 76.4889 78.531 72.9698Z" fill="#202124"/>
<path d="M50.3015 103.753C50.5032 103.753 50.6377 103.618 50.6377 103.415C51.0412 95.6569 54.2692 88.3031 59.6491 82.7034C59.7836 82.5685 59.7836 82.2986 59.6491 82.1637C59.5146 82.0288 59.2456 82.0288 59.1111 82.1637C53.5967 87.8983 50.3687 95.4545 49.898 103.348C49.898 103.55 50.0997 103.753 50.3015 103.753Z" fill="white"/>
<path d="M117.886 104.428C118.087 104.428 118.222 104.293 118.222 104.09C118.289 103.483 118.289 102.808 118.289 102.201C118.289 98.0857 117.415 94.1727 115.734 90.4621C115.666 90.2597 115.465 90.1922 115.263 90.2597C115.061 90.3271 114.994 90.5295 115.061 90.7319C116.675 94.3076 117.549 98.1532 117.549 102.201C117.549 102.808 117.549 103.483 117.482 104.023C117.549 104.293 117.684 104.428 117.886 104.428Z" fill="white"/>
<path d="M127.703 51.6018C127.838 51.6018 127.905 51.5343 127.972 51.4668C131.066 47.6213 132.68 42.9661 132.68 38.0411C132.68 26.1671 123.063 16.5195 111.227 16.5195C109.546 16.5195 107.797 16.7219 106.183 17.1267C105.982 17.1942 105.847 17.3966 105.915 17.599C105.982 17.8014 106.183 17.9363 106.385 17.8688C107.999 17.4641 109.613 17.2617 111.227 17.2617C122.66 17.2617 131.94 26.5719 131.94 38.0411C131.94 42.8312 130.393 47.284 127.367 51.062C127.233 51.197 127.233 51.4668 127.434 51.6018C127.569 51.5343 127.636 51.6018 127.703 51.6018Z" fill="white"/>
<path d="M60.9928 78.6555H61.0601C61.2618 78.588 61.3963 78.3856 61.3291 78.1832C60.7239 76.0243 60.3876 73.7304 60.3876 71.5041C60.3876 68.738 60.8584 65.9719 61.7326 63.4082C61.7998 63.2058 61.7326 63.0034 61.5309 62.9359C61.3291 62.8684 61.1273 63.0034 61.0601 63.1383C60.1186 65.8369 59.6479 68.603 59.6479 71.5041C59.6479 73.8654 59.9841 76.1592 60.5894 78.3856C60.7239 78.588 60.8583 78.6555 60.9928 78.6555Z" fill="white"/>
<path d="M60.3873 59.2891C60.4546 59.2891 60.5218 59.2891 60.5891 59.2216C60.7908 59.1542 60.8581 58.8843 60.7236 58.7494C58.7061 54.8364 57.6301 50.4511 57.6301 46.0658C57.6301 30.9534 69.8695 18.6747 84.9333 18.6747C85.135 18.6747 85.2695 18.5397 85.2695 18.3373C85.2695 18.1349 85.135 18 84.9333 18C69.466 18 56.9576 30.6161 56.9576 46.0658C56.9576 50.586 58.0336 55.1062 60.1856 59.1542C60.1183 59.2216 60.2528 59.2891 60.3873 59.2891Z" fill="white"/>
<path d="M130.396 119.742L142.232 192.335C155.279 193.617 167.989 197.395 179.556 203.467L213.449 221.211H189.105C176.26 217.77 147.141 210.214 130.598 204.682C128.917 204.142 127.572 202.725 127.168 200.971L114.996 155.499L130.396 119.742Z" fill="white"/>
<path d="M142.301 192.335C132.012 190.919 126.766 198.272 128.716 203.467C127.977 202.793 127.506 201.916 127.237 200.971C122.664 186.601 118.629 171.354 115.065 155.499L130.465 119.742C136.248 145.244 140.687 164.54 142.301 192.335Z" fill="#09B850"/>
<path d="M127.438 202.793C127.505 202.793 127.572 202.793 127.639 202.725C127.841 202.658 127.908 202.388 127.774 202.253C126.294 199.487 123.873 193.212 122.528 188.287C122.461 188.085 122.259 187.95 122.058 188.018C121.856 188.085 121.721 188.287 121.789 188.49C123.134 193.482 125.555 199.824 127.101 202.658C127.169 202.725 127.303 202.793 127.438 202.793Z" fill="white"/>
<path d="M58.7088 105.099C78.0766 102.67 97.4444 102.94 116.879 105.841C125.555 107.123 131.54 115.219 130.397 123.922L129.186 133.232L133.355 145.039C136.247 153.269 133.288 162.377 126.093 167.302C126.093 167.302 118.493 189.026 123.806 213.449L126.429 225.525H51.5804C59.9193 207.512 61.6678 187.137 56.4224 168.044L43.107 119.132C48.2852 113.532 49.2267 110.226 58.7088 105.099Z" fill="#09B850"/>
<path d="M142.029 188.422C142.231 188.422 142.433 188.22 142.366 188.018C140.55 162.381 136.246 143.558 130.799 119.675C130.059 114.143 126.629 109.353 121.586 106.924C121.384 106.856 121.182 106.924 121.115 107.126C121.048 107.329 121.115 107.531 121.317 107.598C126.159 109.892 129.454 114.48 130.126 119.81C135.574 143.693 139.945 162.516 141.693 188.085C141.626 188.22 141.828 188.422 142.029 188.422Z" fill="white"/>
<path d="M59.1775 195.975C59.3793 195.975 59.5138 195.84 59.5138 195.638C60.119 186.26 59.1775 176.95 56.6893 167.842C56.6221 167.64 56.4203 167.505 56.2186 167.572C56.0168 167.64 55.8823 167.842 55.9496 168.044C58.3705 177.017 59.312 186.26 58.7068 195.571C58.774 195.773 58.9758 195.975 59.1775 195.975Z" fill="white"/>
<path d="M142.301 221.144L130.532 210.485C129.053 209.135 127.035 208.731 125.152 209.27L108.811 214.33C106.188 215.14 103.296 215.072 100.741 214.06C78.3467 205.29 54.7423 195.777 44.1169 195.372C50.4383 180.867 54.8768 163.933 58.0375 145.313L43.7134 119.676C34.2985 147.404 24.1439 172.569 20.8487 201.107C20.5124 203.941 22.2609 206.572 24.9509 207.314C45.8654 213.521 74.7825 219.458 104.91 225.395H140.754L142.301 221.144Z" fill="white"/>
<path d="M52.9954 106.114L58.8461 105.102L55.2819 137.283L58.9134 145.041C59.3841 145.986 59.5186 147.133 59.2496 148.145C55.2147 165.618 49.0277 185.184 44.0513 195.438C34.9054 195.034 23.473 197.462 20.783 201.173C23.2713 174.726 31.4084 150.304 40.9578 116.908C42.639 111.308 47.2792 107.126 52.9954 106.114Z" fill="#09B850"/>
<path d="M123.468 212.167H123.535C123.737 212.099 123.872 211.964 123.804 211.762C119.231 188.419 126.427 167.302 126.494 167.1C126.562 166.897 126.494 166.695 126.293 166.627C126.091 166.56 125.889 166.695 125.822 166.83C125.755 167.032 118.424 188.351 123.065 211.897C123.132 212.032 123.266 212.167 123.468 212.167Z" fill="white"/>
<path d="M45.5272 193.279C49.4949 184.441 53.3954 170.475 57.1614 156.982C57.9683 154.013 58.8426 151.112 59.6496 148.211C61.8015 140.655 62.6758 132.897 62.6758 132.829L61.9361 132.762C61.9361 132.829 61.0618 140.588 58.9098 148.076C58.1028 150.91 57.2959 153.879 56.4216 156.847C52.6557 170.34 48.688 184.238 44.7875 193.009L45.5272 193.279Z" fill="white"/>
<path d="M21.4517 198.945C23.7382 177.559 29.5889 157.454 36.9863 132.087C38.3985 127.229 39.878 122.237 41.3575 116.974C42.9042 111.577 47.4772 107.394 53.0589 106.45L56.1523 105.91L56.0178 105.168L52.9244 105.708C47.0737 106.72 42.299 111.037 40.6178 116.772C39.1383 122.034 37.6588 127.027 36.2466 131.817C28.7819 157.252 22.9312 177.356 20.6447 198.811L21.4517 198.945Z" fill="white"/>
<path d="M76.3277 99.1655L84.3303 74.2031L100.739 82.0292L104.505 100.785C104.909 102.876 106.657 104.495 108.809 104.765C111.499 105.035 114.189 105.44 116.879 105.845C117.753 105.98 118.56 106.182 119.367 106.452C113.651 128.176 81.4386 125.949 58.8429 105.102C62.6088 104.63 66.442 104.293 70.208 104.023C73.0325 103.753 75.4534 101.864 76.3277 99.1655Z" fill="white"/>
<path d="M117.887 28.0547C130.261 48.2944 125.419 79.1938 114.189 88.774C102.891 98.3541 73.3012 68.5342 73.3012 68.5342L75.3859 35.4085L117.887 28.0547Z" fill="white"/>
<path d="M104.775 63.4034H104.708C104.036 63.336 103.498 62.7288 103.498 62.0541L103.632 60.5699C103.699 59.8952 104.305 59.3555 104.977 59.3555C105.65 59.4229 106.188 60.0301 106.188 60.7048L106.053 62.189C105.986 62.9312 105.448 63.4034 104.775 63.4034Z" fill="#202124"/>
<path d="M117.889 63.4034H117.821C117.149 63.336 116.611 62.7288 116.611 62.0541L116.745 60.5699C116.813 59.8952 117.418 59.3555 118.09 59.3555C118.763 59.4229 119.301 60.0301 119.301 60.7048L119.166 62.189C119.166 62.9312 118.561 63.4034 117.889 63.4034Z" fill="#202124"/>
<path d="M101.814 55.1066C101.68 55.1066 101.478 55.0392 101.411 54.9042C101.209 54.7018 101.209 54.297 101.478 54.0946C102.554 53.1501 105.244 52.3405 107.127 53.0827C107.396 53.2176 107.531 53.4874 107.463 53.8248C107.329 54.0946 107.06 54.2296 106.724 54.1621C105.311 53.6224 102.958 54.297 102.151 54.9717C102.083 55.0392 101.949 55.1066 101.814 55.1066Z" fill="#202124"/>
<path d="M121.183 54.8376C121.049 54.8376 120.981 54.7702 120.847 54.7027C119.704 53.8256 117.484 53.6907 116.207 54.0955C115.938 54.163 115.601 54.028 115.534 53.7582C115.467 53.4883 115.601 53.151 115.87 53.0835C117.417 52.6112 120.04 52.7462 121.519 53.8931C121.788 54.0955 121.788 54.4328 121.654 54.6352C121.519 54.7701 121.385 54.8376 121.183 54.8376Z" fill="#202124"/>
<path d="M113.315 80.9475C115.467 80.9475 116.274 79.4632 116.341 79.4632C116.408 79.2608 116.341 79.0584 116.206 78.991C116.005 78.9235 115.803 78.991 115.736 79.1259C115.736 79.1934 115.063 80.2728 113.382 80.2728C111.297 80.2728 108.338 77.9115 108.271 77.844C108.136 77.7091 107.867 77.7091 107.733 77.9115C107.598 78.0464 107.598 78.3163 107.8 78.4512C107.935 78.4512 110.961 80.9475 113.315 80.9475Z" fill="#202124"/>
<path d="M112.507 72.6468C112.373 72.6468 112.238 72.5794 112.171 72.4444C112.104 72.242 112.171 72.0396 112.373 71.9722C113.382 71.5674 113.987 70.4879 113.651 69.4085L112.373 64.8883C112.306 64.6859 112.44 64.4835 112.642 64.416C112.844 64.3485 113.045 64.4835 113.113 64.6859L114.39 69.2061C114.794 70.6228 114.054 72.1071 112.642 72.6468C112.575 72.6468 112.575 72.6468 112.507 72.6468Z" fill="#202124"/>
<path d="M69.2666 32.7753C69.8046 29.9418 72.0238 27.7829 74.8483 27.3781L112.979 21.7784C115.938 21.3736 118.762 23.0602 119.771 25.8938L124.344 39.1171C120.174 39.1171 116.408 37.8353 113.786 35.7438C109.213 42.0856 100.269 49.6418 84.2632 46.8082C86.1462 55.5113 80.968 64.6867 69.3339 73.4572C64.8954 70.8261 69.2666 32.7753 69.2666 32.7753Z" fill="#202124"/>
<path d="M114.19 35.6762C114.257 35.4738 114.19 35.3389 113.988 35.2714C113.786 35.2039 113.584 35.2714 113.517 35.4738C111.029 41.1409 106.725 45.4587 102.085 46.943C101.883 47.0105 101.816 47.2128 101.883 47.4152C101.95 47.6176 102.152 47.6851 102.354 47.6176C107.128 45.9985 111.567 41.5457 114.19 35.6762Z" fill="#202124"/>
<path d="M97.9141 21.576C94.0809 20.0243 89.6424 20.6989 86.4144 23.2626C76.7305 31.0887 73.2336 42.1531 73.2336 55.9161V59.8966L82.3122 59.087V48.0226C82.3795 37.0257 88.2974 26.9058 97.9141 21.576Z" fill="white"/>
<path d="M82.7812 56.3195C81.369 55.3749 79.3515 54.6328 77.4685 54.6328C75.6528 54.6328 73.9716 54.9027 72.3576 55.5099C72.3576 55.7123 72.3576 55.8472 72.3576 56.0496L72.2904 60.6373L82.714 59.8952L82.7812 56.3195Z" fill="#202124"/>
<path d="M101.679 77.9111C101.881 77.3714 101.612 76.6967 101.074 76.4943L88.162 71.4344C87.624 71.232 86.9515 71.5018 86.7498 72.0416C86.548 72.5813 86.817 73.256 87.355 73.4584L100.267 78.5183C100.805 78.7207 101.477 78.4508 101.679 77.9111Z" fill="#202124"/>
<path d="M101.68 80.0678C100.492 80.0678 99.5281 79.1012 99.5281 77.9089C99.5281 76.7166 100.492 75.75 101.68 75.75C102.869 75.75 103.832 76.7166 103.832 77.9089C103.832 79.1012 102.869 80.0678 101.68 80.0678Z" fill="#202124"/>
<path d="M66.3233 71.3718C64.7955 64.8809 68.802 58.3766 75.272 56.8439C81.7421 55.3112 88.2255 59.3306 89.7533 65.8215C91.281 72.3123 87.2745 78.8167 80.8045 80.3494C74.3345 81.882 67.851 77.8626 66.3233 71.3718Z" fill="white"/>
<path d="M74.1738 75.3458C77.6708 75.3458 80.5625 72.5123 80.5625 68.9366C80.5625 65.3609 77.738 62.5273 74.1738 62.5273C70.6096 62.5273 67.7851 65.3609 67.7851 68.9366C67.7851 72.5123 70.6769 75.3458 74.1738 75.3458ZM74.1738 63.3369C77.2673 63.3369 79.8228 65.9006 79.8228 69.0041C79.8228 72.1075 77.2673 74.6712 74.1738 74.6712C71.0804 74.6712 68.5249 72.1075 68.5249 69.0041C68.5249 65.9006 71.0804 63.3369 74.1738 63.3369Z" fill="#202124"/>
<path d="M83.9252 79.5275C83.9924 79.5275 84.0597 79.5275 84.1269 79.4601C88.0947 77.2337 90.5156 73.0508 90.5156 68.5306C90.5156 64.1453 88.2964 60.1648 84.5304 57.871C84.3287 57.736 84.1269 57.8035 84.0597 58.0059C83.9252 58.2083 83.9924 58.4107 84.1942 58.4782C87.6911 60.6371 89.7759 64.3477 89.7759 68.5306C89.7759 72.7809 87.4894 76.694 83.7234 78.7854C83.5217 78.8529 83.4544 79.1227 83.5889 79.2577C83.6562 79.4601 83.7907 79.5275 83.9252 79.5275Z" fill="#202124"/>
<path d="M100.806 89.2446C100.738 89.2446 100.738 89.2446 100.671 89.2446C96.4345 87.4905 91.458 84.3871 86.0108 80.2042C85.8763 80.0693 85.8091 79.8669 85.9436 79.6645C86.0781 79.5295 86.2798 79.4621 86.4816 79.597C91.9288 83.7799 96.8379 86.8158 101.007 88.5699C101.209 88.6374 101.276 88.8398 101.209 89.0422C101.075 89.1097 100.94 89.2446 100.806 89.2446Z" fill="#202124"/>
<path d="M111.432 166.562C111.566 166.359 111.768 166.359 111.903 166.427C111.97 166.494 118.628 170.407 125.218 166.899C139.609 158.533 128.244 133.639 128.177 133.369C128.11 133.166 128.177 132.964 128.379 132.896C128.58 132.829 128.782 132.896 128.849 133.099C128.849 133.166 131.808 139.576 132.884 146.997C134.297 156.779 131.808 163.931 125.689 167.506C125.689 167.506 125.151 167.776 124.815 167.911C122.932 168.788 121.049 169.058 119.3 169.058C114.929 169.058 111.499 167.034 111.432 167.034C111.365 166.967 111.365 166.764 111.432 166.562Z" fill="white"/>
<path d="M85.2061 169.934C83.9956 169.934 82.7178 169.866 81.3729 169.664C70.613 168.112 67.1833 155.226 67.1833 155.091C67.116 154.889 67.2505 154.687 67.4523 154.619C67.654 154.552 67.8558 154.687 67.923 154.889C67.923 155.024 71.2855 167.438 81.5073 168.922C90.317 170.204 96.2349 166.493 96.3022 166.493C96.5039 166.358 96.7057 166.426 96.8402 166.628C96.9747 166.83 96.9074 167.033 96.7057 167.168C96.3694 167.235 92.0655 169.934 85.2061 169.934Z" fill="white"/>
<path d="M165.636 217.836H92.1994C90.1147 217.836 88.3662 219.523 88.3662 221.681C88.3662 223.773 90.0474 225.527 92.1994 225.527H165.636C167.72 225.527 169.469 223.84 169.469 221.681C169.402 219.523 167.72 217.836 165.636 217.836Z" fill="white"/>
<path d="M161.936 217.701L188.029 156.712C189.374 153.609 192.4 151.652 195.695 151.652H286.011C287.019 151.652 287.894 152.057 288.566 152.664L291.391 155.498L165.567 224.515L161.398 222.222C160.389 221.142 161.331 219.118 161.936 217.701Z" fill="white"/>
<path d="M198.385 154.352C195.022 154.352 191.996 156.376 190.718 159.412L164.693 220.401L163.348 223.572C162.944 224.516 163.617 225.528 164.626 225.528H261.868C263.011 225.528 264.087 224.853 264.558 223.774L265.97 220.468L291.996 159.412C293.004 156.983 291.256 154.352 288.633 154.352H198.385Z" fill="#202124" stroke="white" stroke-miterlimit="10"/>
<path d="M157.429 219.387C158.64 219.387 159.648 220.399 159.648 221.613C159.648 222.827 158.64 223.839 157.429 223.839C156.219 223.839 155.21 222.827 155.21 221.613C155.21 220.399 156.151 219.387 157.429 219.387ZM157.429 222.895C158.102 222.895 158.707 222.355 158.707 221.613C158.707 220.871 158.169 220.331 157.429 220.331C156.757 220.331 156.151 220.871 156.151 221.613C156.151 222.355 156.689 222.895 157.429 222.895Z" fill="#202124"/>
<path d="M230.464 198.27C222.85 198.27 216.678 195.37 216.678 191.793C216.678 188.216 222.85 185.316 230.464 185.316C238.078 185.316 244.25 188.216 244.25 191.793C244.25 195.37 238.078 198.27 230.464 198.27Z" fill="white"/>
<path d="M97.2405 222.018H102.957C103.158 222.018 103.293 221.883 103.293 221.681C103.293 221.479 103.158 221.344 102.957 221.344H97.2405C97.0388 221.344 96.9043 221.479 96.9043 221.681C96.9043 221.883 97.0388 222.018 97.2405 222.018Z" fill="#202124"/>
<path d="M109.885 222.018H115.601C115.803 222.018 115.938 221.883 115.938 221.681C115.938 221.479 115.803 221.344 115.601 221.344H109.885C109.683 221.344 109.549 221.479 109.549 221.681C109.549 221.883 109.683 222.018 109.885 222.018Z" fill="#202124"/>
<path d="M88.4338 221.211C88.6356 221.211 88.7701 221.076 88.7701 220.941C89.1063 219.322 90.5185 218.175 92.1325 218.175H136.383C136.584 218.175 136.719 218.04 136.719 217.837C136.719 217.635 136.584 217.5 136.383 217.5H92.1325C90.1823 217.5 88.4338 218.917 88.0303 220.873C87.9631 221.076 88.0976 221.278 88.2993 221.278C88.4338 221.211 88.4338 221.211 88.4338 221.211Z" fill="#202124"/>
<path d="M261.868 225.865C263.146 225.865 264.356 225.055 264.894 223.909L292.332 159.614L291.66 159.344L264.222 223.639C263.818 224.583 262.877 225.19 261.868 225.19V225.865Z" fill="white"/>
<path d="M215.331 70.5588L220.576 63.8797H224.611C226.965 63.8797 228.848 61.9906 228.848 59.6293V43.7074C228.848 41.3461 226.965 39.457 224.611 39.457H187.624C185.27 39.457 183.387 41.3461 183.387 43.7074V59.5619C183.387 61.9232 185.27 63.8122 187.624 63.8122H209.278L214.524 70.4913C214.658 70.6263 214.793 70.6937 214.927 70.6937C215.062 70.7612 215.196 70.6937 215.331 70.5588Z" fill="white"/>
<path d="M224.61 40.6055C226.358 40.6055 227.703 42.0223 227.703 43.7089V59.5634C227.703 61.3175 226.291 62.6668 224.61 62.6668H220.306C220.104 62.6668 219.969 62.7343 219.902 62.8692L214.926 69.211L209.949 62.8692C209.815 62.7343 209.68 62.6668 209.546 62.6668H187.623C185.874 62.6668 184.529 61.25 184.529 59.5634V43.7089C184.529 41.9548 185.941 40.6055 187.623 40.6055H224.61Z" fill="#09B850"/>
<path d="M206.522 48.1615H219.501C219.77 48.1615 220.039 47.8916 220.039 47.6218C220.039 47.3519 219.77 47.082 219.501 47.082H206.522C206.253 47.082 205.984 47.3519 205.984 47.6218C205.984 47.9591 206.253 48.1615 206.522 48.1615Z" fill="white"/>
<path d="M192.668 48.1615H201.478C201.747 48.1615 202.016 47.8916 202.016 47.6218C202.016 47.3519 201.747 47.082 201.478 47.082H192.668C192.399 47.082 192.13 47.3519 192.13 47.6218C192.13 47.9591 192.399 48.1615 192.668 48.1615Z" fill="white"/>
<path d="M214.726 52.6146H219.501C219.77 52.6146 220.039 52.3447 220.039 52.0749C220.039 51.805 219.77 51.5352 219.501 51.5352H214.726C214.457 51.5352 214.188 51.805 214.188 52.0749C214.188 52.4122 214.457 52.6146 214.726 52.6146Z" fill="white"/>
<path d="M192.667 52.6146H209.681C209.95 52.6146 210.219 52.3447 210.219 52.0749C210.219 51.805 209.95 51.5352 209.681 51.5352H192.667C192.398 51.5352 192.129 51.805 192.129 52.0749C192.129 52.4122 192.398 52.6146 192.667 52.6146Z" fill="white"/>
<path d="M200.806 57.0677H219.501C219.77 57.0677 220.039 56.7979 220.039 56.528C220.039 56.2581 219.77 55.9883 219.501 55.9883H200.806C200.537 55.9883 200.268 56.2581 200.268 56.528C200.268 56.7979 200.537 57.0677 200.806 57.0677Z" fill="white"/>
<path d="M236.448 124.8L242.164 117.446H265.97C268.458 117.446 270.543 115.354 270.543 112.858V95.3846C270.543 92.8883 268.458 90.7969 265.97 90.7969H225.351C222.863 90.7969 220.779 92.8883 220.779 95.3846V112.858C220.779 115.354 222.863 117.446 225.351 117.446H229.857L235.573 124.8C235.708 124.935 235.842 125.002 235.977 125.002C236.246 125.002 236.38 124.935 236.448 124.8Z" fill="white"/>
<path d="M266.038 91.9425C267.988 91.9425 269.535 93.4942 269.535 95.4507V112.857C269.535 114.813 267.988 116.365 266.038 116.365H241.963C241.761 116.365 241.627 116.433 241.559 116.568L236.112 123.584L230.665 116.568C230.531 116.433 230.396 116.365 230.262 116.365H225.487C223.537 116.365 221.99 114.813 221.99 112.857V95.3832C221.99 93.4267 223.537 91.875 225.487 91.875H266.038V91.9425Z" fill="#09B850"/>
<path d="M246.199 102.064H262.339C262.743 102.064 263.012 101.794 263.012 101.39C263.012 100.985 262.743 100.715 262.339 100.715H246.199C245.796 100.715 245.527 100.985 245.527 101.39C245.527 101.794 245.863 102.064 246.199 102.064Z" fill="white"/>
<path d="M228.983 102.064H239.945C240.348 102.064 240.617 101.794 240.617 101.39C240.617 100.985 240.348 100.715 239.945 100.715H228.983C228.58 100.715 228.311 100.985 228.311 101.39C228.311 101.794 228.647 102.064 228.983 102.064Z" fill="white"/>
<path d="M256.488 107.595H262.406C262.809 107.595 263.078 107.326 263.078 106.921C263.078 106.516 262.809 106.246 262.406 106.246H256.488C256.084 106.246 255.815 106.516 255.815 106.921C255.815 107.258 256.084 107.595 256.488 107.595Z" fill="white"/>
<path d="M238.466 107.595H250.167C250.571 107.595 250.84 107.326 250.84 106.921C250.84 106.516 250.571 106.246 250.167 106.246H238.466C238.062 106.246 237.793 106.516 237.793 106.921C237.793 107.258 238.062 107.595 238.466 107.595Z" fill="white"/>
<path d="M215.062 9.16329C215.062 6.46465 212.843 4.23828 210.153 4.23828C207.463 4.23828 205.244 6.46465 205.244 9.16329C205.244 11.8619 207.463 14.0883 210.153 14.0883C212.843 14.0883 215.062 11.9294 215.062 9.16329ZM214.121 9.16329C214.121 11.3222 212.373 13.0763 210.221 13.0763C208.069 13.0763 206.32 11.3222 206.32 9.16329C206.32 7.00438 208.069 5.25027 210.221 5.25027C212.373 5.25027 214.121 7.00438 214.121 9.16329Z" fill="white"/>
<path d="M308.336 192.468C308.336 189.769 306.117 187.543 303.427 187.543C300.737 187.543 298.518 189.769 298.518 192.468C298.518 195.167 300.737 197.393 303.427 197.393C306.117 197.393 308.336 195.167 308.336 192.468ZM307.327 192.468C307.327 194.627 305.579 196.381 303.427 196.381C301.275 196.381 299.526 194.627 299.526 192.468C299.526 190.309 301.275 188.555 303.427 188.555C305.579 188.555 307.327 190.242 307.327 192.468Z" fill="white"/>
<path d="M164.625 133.235C164.625 131.683 163.347 130.469 161.868 130.469C160.321 130.469 159.111 131.751 159.111 133.235C159.111 134.787 160.388 136.001 161.868 136.001C163.347 136.068 164.625 134.787 164.625 133.235ZM163.616 133.235C163.616 134.247 162.809 134.989 161.868 134.989C160.859 134.989 160.119 134.179 160.119 133.235C160.119 132.223 160.926 131.481 161.868 131.481C162.809 131.481 163.616 132.29 163.616 133.235Z" fill="white"/>
<path d="M248.484 50.52C248.484 48.9683 247.207 47.7539 245.727 47.7539C244.18 47.7539 242.97 49.0358 242.97 50.52C242.97 52.0717 244.248 53.2861 245.727 53.2861C247.207 53.3536 248.484 52.0717 248.484 50.52ZM247.476 50.52C247.476 51.532 246.669 52.2741 245.727 52.2741C244.718 52.2741 243.979 51.4645 243.979 50.52C243.979 49.5755 244.718 48.7659 245.727 48.7659C246.669 48.7659 247.476 49.5755 247.476 50.52Z" fill="white"/>
<path d="M29.1182 225.999H321.182C321.451 225.999 321.652 225.797 321.652 225.527C321.652 225.257 321.451 225.055 321.182 225.055H29.1182C28.8492 225.055 28.6474 225.257 28.6474 225.527C28.5802 225.729 28.8492 225.999 29.1182 225.999Z" fill="white"/>
<path d="M0.536115 225.999H17.7519C18.0209 225.999 18.2227 225.797 18.2227 225.527C18.2227 225.257 18.0209 225.055 17.7519 225.055H0.536115C0.267118 225.055 0.0653619 225.257 0.0653619 225.527C-0.00188738 225.729 0.267118 225.999 0.536115 225.999Z" fill="white"/>
<path d="M149.996 35.4219H164.521C164.79 35.4219 164.992 35.6243 164.992 35.8941V39.4698C164.992 40.7517 163.916 41.8311 162.638 41.8311H162.235V43.1804C162.235 44.5298 161.159 45.6092 159.814 45.6092H154.77C153.425 45.6092 152.349 44.5298 152.349 43.1804V41.8311H151.946C150.668 41.8311 149.592 40.7517 149.592 39.4698V35.8941C149.525 35.6243 149.727 35.4219 149.996 35.4219ZM150.466 39.4698C150.466 40.2794 151.139 40.9541 151.946 40.9541H152.753H158.671C158.94 40.9541 159.142 41.1565 159.142 41.4263C159.142 41.6962 158.94 41.8986 158.671 41.8986H158.604H153.156V43.2479C153.156 44.125 153.829 44.7996 154.703 44.7996H159.747C160.621 44.7996 161.293 44.125 161.293 43.2479V41.4263C161.293 41.1565 161.495 40.9541 161.764 40.9541C161.831 40.9541 161.899 40.9541 161.899 40.9541C161.966 40.9541 161.966 40.9541 162.033 40.9541H162.571C163.378 40.9541 164.051 40.2794 164.051 39.4698V36.3664H150.466V39.4698Z" fill="white"/>
<path d="M157.259 30.3634C156.99 30.3634 156.788 30.1611 156.788 29.8912V20.9182C155.039 20.8508 153.291 20.1086 151.946 18.8268C151.744 18.6244 151.744 18.3545 151.946 18.1521C152.148 17.9497 152.417 17.9497 152.618 18.1521C155.107 20.6484 159.142 20.6484 161.63 18.1521L161.899 17.8823C162.101 17.6799 162.37 17.6799 162.571 17.8823C162.773 18.0847 162.773 18.3545 162.571 18.5569L162.302 18.8268C161.025 20.1086 159.411 20.7833 157.729 20.9182V29.9587C157.729 30.1611 157.46 30.3634 157.259 30.3634Z" fill="white"/>
<path d="M143.472 13.8345C143.741 13.8345 143.943 14.0369 143.943 14.3067C143.943 17.4102 145.019 20.4461 146.969 22.8074C149.256 25.5735 150.466 28.7444 150.466 32.0503V32.3201H164.05V32.1177C164.05 28.8794 165.261 25.641 167.547 22.8749C169.498 20.5136 170.574 17.5451 170.574 14.5091C170.641 7.42522 164.723 1.21836 157.594 1.01597C152.215 0.881035 147.238 3.98446 145.019 8.90947C144.884 9.11187 144.615 9.2468 144.414 9.11187C144.212 8.97694 144.077 8.70707 144.212 8.50468C146.566 3.17487 151.878 -0.130952 157.662 0.00397932C165.328 0.206377 171.582 6.6831 171.515 14.3742C171.515 17.6126 170.372 20.7835 168.287 23.3472C166.135 25.9783 164.992 29.0143 164.992 31.9828V32.6574C164.992 32.9273 164.79 33.1297 164.521 33.1297H149.995C149.726 33.1297 149.525 32.9273 149.525 32.6574V31.9828C149.525 28.9468 148.381 25.9783 146.229 23.3472C144.145 20.7835 143.001 17.5451 143.001 14.2393C143.001 14.0369 143.203 13.8345 143.472 13.8345Z" fill="white"/>
</svg>
